<svg width="512" height="512" xmlns="http://www.w3.org/2000/svg" stroke="null" style="vector-effect: non-scaling-stroke;" preserveAspectRatio="xMidYMid meet">

 <g stroke="null">
  <title stroke="null">background</title>
  <rect stroke="null" fill="none" id="canvas_background" height="402" width="582" y="-1" x="-1"/>
 </g>
 <g stroke="null">
  <title stroke="null">Layer 1</title>
  <g id="svg_1" fill="#FFFFFF" transform="translate(0,1) translate(0,512) scale(0.10000000149011612,-0.10000000149011612) translate(16.929031372070312,4303) scale(1,1.000244140625) translate(-16.929031372070312,-4303) translate(16.929031372070312,13.760555267333984) scale(1,1.0002331733703613) translate(-16.929031372070312,-13.760555267333984) ">
   <path stroke="null" id="svg_2" d="m1657.794041,5079.683121c-126.77288,-255.411967 -445.890819,-2499.712388 -630.95008,-4438.727499l-11.657276,-120.905073l-87.429572,4.53394c-310.374982,15.113134 -508.548679,140.552148 -569.74938,361.203906c-59.743541,211.583878 8.742957,371.7831 225.859728,528.959695c52.457743,39.294149 113.658444,87.656178 136.972997,108.814566c52.457743,49.873343 52.457743,108.814566 0,152.642655c-93.25821,77.076984 -313.289301,-3.022627 -486.691286,-175.312356c-189.43074,-190.42549 -257.917238,-453.394024 -193.802219,-740.543573c33.514669,-155.665282 88.886732,-258.434594 196.716538,-370.271787c154.458911,-160.199222 348.26113,-240.298833 639.693037,-264.479848c68.486498,-4.53394 150.087432,-18.135761 182.144942,-28.714955c163.201868,-55.918596 807.266384,-83.122238 1930.736389,-83.122238c1091.412494,0 1850.592614,28.714955 2028.366078,77.076984c81.600934,21.158388 90.343891,51.384656 78.686615,261.457221c-46.629105,837.267632 -473.57685,3797.930611 -658.636111,4564.166512c-45.171946,185.89155 -55.372062,205.538624 -103.458327,205.538624c-81.600934,0 -225.859728,-208.561251 -434.233542,-630.217694c-61.200701,-122.416387 -113.658444,-225.185699 -115.115604,-228.208326c-2.914319,-1.511313 -88.886732,12.090507 -192.345059,30.226268c-157.37323,27.203641 -243.345643,33.248895 -530.406072,33.248895c-327.860896,0 -425.490585,-9.06788 -657.178952,-60.452537c-34.971829,-7.556567 -43.714786,3.022627 -122.401401,148.108715c-187.97358,341.556832 -393.433075,622.661127 -504.1772,686.13629c-56.829222,33.248895 -97.629689,25.692328 -120.944242,-21.158388zm671.750547,-1768.236695c62.65786,-45.339402 96.17253,-128.46164 87.429572,-208.561251c-13.114436,-126.950327 -116.572763,-213.095191 -237.517005,-197.982057c-279.774631,31.737582 -241.888483,468.507159 39.343308,444.326144c37.886148,-3.022627 87.429572,-19.647074 110.744125,-37.782835zm1792.306232,0c62.65786,-45.339402 96.17253,-128.46164 87.429572,-208.561251c-13.114436,-126.950327 -116.572763,-213.095191 -237.517005,-197.982057c-279.774631,31.737582 -241.888483,468.507159 39.343308,444.326144c37.886148,-3.022627 87.429572,-19.647074 110.744125,-37.782835zm-861.181287,-736.009633c90.343891,10.579194 106.372646,-10.579194 26.228872,-37.782835c-67.029339,-24.181015 -138.430156,-9.06788 -180.687783,37.782835l-34.971829,37.782835l-39.343308,-39.294149c-45.171946,-43.828089 -131.144358,-61.96385 -190.8879,-37.782835c-69.943658,27.203641 -48.086265,48.362029 37.886148,37.782835c74.315136,-9.06788 80.143775,-7.556567 134.058678,43.828089l56.829222,52.89597l55.372062,-52.89597c55.372062,-51.384656 61.200701,-52.89597 135.515837,-42.316776z"/>
  </g>
 </g>
</svg>